<?xml version="1.0" encoding="UTF-8" standalone="no"?><svg xmlns="http://www.w3.org/2000/svg" xmlns:xlink="http://www.w3.org/1999/xlink" contentScriptType="application/ecmascript" contentStyleType="text/css" height="515px" preserveAspectRatio="none" style="width:1270px;height:515px;" version="1.1" viewBox="0 0 1270 515" width="1270px" zoomAndPan="magnify"><defs><filter height="300%" id="fmsi7lkkgqq3h" width="300%" x="-1" y="-1"><feGaussianBlur result="blurOut" stdDeviation="2.0"/><feColorMatrix in="blurOut" result="blurOut2" type="matrix" values="0 0 0 0 0 0 0 0 0 0 0 0 0 0 0 0 0 0 .4 0"/><feOffset dx="4.0" dy="4.0" in="blurOut2" result="blurOut3"/><feBlend in="SourceGraphic" in2="blurOut3" mode="normal"/></filter></defs><g><text fill="#000000" font-family="sans-serif" font-size="18" lengthAdjust="spacingAndGlyphs" textLength="356" x="448" y="16.708">Overview components dev and backend</text><path d="M658.4884,272.9315 C665.7495,256.4389 679.9659,258.7643 688.2743,271.8779 C698.7016,260.8975 709.1435,260.8674 717.3085,274.5421 C724.6078,259.7742 733.3898,260.477 743.2237,272.0483 C753.3815,254.5729 766.3285,255.7651 776.2642,272.2644 C783.9747,256.8459 793.3713,254.8511 805.4184,267.809 C813.247,256.2083 824.5563,256.9095 832.3394,267.8634 C842.3937,252.3412 853.1838,254.8354 862.931,268.1887 C872.0321,255.5062 879.6454,256.8246 887.6519,269.2657 C895.0741,252.6102 909.9242,256.0473 918.4692,268.0587 C928.9889,253.1754 942.5011,256.5467 948.6151,272.3822 C956.1628,256.416 969.3643,256.3869 979.3852,269.7911 C989.5988,259.9552 997.5943,260.4669 1005.2355,272.7918 C1013.594,258.8303 1024.9559,256.5408 1034.3675,271.7398 C1048.3754,257.5372 1060.5594,261.124 1069,277.9531 C1072.7168,277.61 1073.5827,279.4188 1072.8308,282.6898 C1089.1598,292.2792 1088.1952,307.2464 1070.9971,314.9288 C1084.9924,323.4813 1085.6746,334.0824 1074.5658,345.5596 C1090.0876,357.4586 1089.8675,368.2703 1073.2158,378.8652 C1087.2994,393.369 1081.9781,411.75 1062,415.9531 C1063.3538,413.7925 1064.9519,414.0416 1066.1983,416.0611 C1058.9148,430.5273 1044.729,434.9247 1034.5198,419.1231 C1026.9347,433.1402 1017.1168,432.6734 1008.0703,420.6048 C998.6025,438.4924 984.9245,435.7837 974.9099,421.1625 C969.0525,434.8806 957.3622,436.9905 948.7887,423.799 C939.25,439.7806 930.0807,437.0177 919.0174,425.4462 C910.1674,440.6508 897.7925,439.1343 890.5547,423.9368 C883.069,439.0748 871.6345,437.9118 863.3176,424.7363 C852.3985,437.3273 840.629,438.0507 832.8349,421.4707 C822.8564,435.7068 813.2185,435.1666 804.0668,420.6436 C795.4633,436.3526 783.4403,439.3953 772.4436,423.0012 C764.9513,438.2369 751.528,439.6213 743.1459,423.8418 C734.2253,437.0058 722.7569,433.7977 715.4024,422.0945 C705.2802,435.83 693.3416,437.1514 684.3108,420.9606 C665.7493,435.0815 654.7702,430.4895 648,408.9531 C650.2125,407.8065 652.2127,408.7279 652.2696,411.3776 C635.1788,404.3681 628.3499,391.9001 643.5864,376.7778 C631.1859,371.4816 627.0008,358.284 638.9167,348.9129 C623.9053,335.9144 628.1815,325.0732 643.144,315.9146 C622.3922,295.5444 627.1368,278.5039 655,270.9531 C656.7595,270.0242 658.3777,270.9531 658.4884,272.9315 " fill="#FFFFFF" filter="url(#fmsi7lkkgqq3h)" style="stroke: #000000; stroke-width: 1.5;"/><!--MD5=[9d74ddd6f527cb08f469d4a56961ba5f]
cluster VMS--><polygon fill="#FFFFFF" filter="url(#fmsi7lkkgqq3h)" points="648,280.9531,658,270.9531,1069,270.9531,1069,405.9531,1059,415.9531,648,415.9531,648,280.9531" style="stroke: #000000; stroke-width: 1.5;"/><line style="stroke: #000000; stroke-width: 1.5;" x1="1059" x2="1069" y1="280.9531" y2="270.9531"/><line style="stroke: #000000; stroke-width: 1.5;" x1="648" x2="1059" y1="280.9531" y2="280.9531"/><line style="stroke: #000000; stroke-width: 1.5;" x1="1059" x2="1059" y1="280.9531" y2="415.9531"/><text fill="#000000" font-family="sans-serif" font-size="14" font-weight="bold" lengthAdjust="spacingAndGlyphs" textLength="157" x="776" y="296.9482">VMS - Ubuntu 20.04</text><!--MD5=[e85466b420e6d8ac308a0286da8b4aa5]
cluster DOCKER--><rect fill="#FFFFFF" filter="url(#fmsi7lkkgqq3h)" height="100" style="stroke: #000000; stroke-width: 1.5;" width="172" x="889" y="307.9531"/><rect fill="#FFFFFF" height="10" style="stroke: #000000; stroke-width: 1.5;" width="15" x="1041" y="312.9531"/><rect fill="#FFFFFF" height="2" style="stroke: #000000; stroke-width: 1.5;" width="4" x="1039" y="314.9531"/><rect fill="#FFFFFF" height="2" style="stroke: #000000; stroke-width: 1.5;" width="4" x="1039" y="318.9531"/><text fill="#000000" font-family="sans-serif" font-size="14" font-weight="bold" lengthAdjust="spacingAndGlyphs" textLength="96" x="927" y="333.9482">Docker host</text><!--MD5=[48ea5502f1425acb348d9d32826a5b4d]
cluster DEVELOPER_MACHINE--><polygon fill="#FFFFFF" filter="url(#fmsi7lkkgqq3h)" points="100,115.9531,110,105.9531,637,105.9531,637,205.9531,627,215.9531,100,215.9531,100,115.9531" style="stroke: #000000; stroke-width: 1.5;"/><line style="stroke: #000000; stroke-width: 1.5;" x1="627" x2="637" y1="115.9531" y2="105.9531"/><line style="stroke: #000000; stroke-width: 1.5;" x1="100" x2="627" y1="115.9531" y2="115.9531"/><line style="stroke: #000000; stroke-width: 1.5;" x1="627" x2="627" y1="115.9531" y2="215.9531"/><text fill="#000000" font-family="sans-serif" font-size="14" font-weight="bold" lengthAdjust="spacingAndGlyphs" textLength="152" x="288.5" y="131.9482">Developer machine</text><!--MD5=[9e6f5debe6fd4f6237207be62295082c]
entity UFW--><rect fill="#FEFECE" filter="url(#fmsi7lkkgqq3h)" height="46.2969" style="stroke: #A80036; stroke-width: 1.5;" width="64" x="798" y="353.9531"/><rect fill="#FEFECE" height="10" style="stroke: #A80036; stroke-width: 1.5;" width="15" x="842" y="358.9531"/><rect fill="#FEFECE" height="2" style="stroke: #A80036; stroke-width: 1.5;" width="4" x="840" y="360.9531"/><rect fill="#FEFECE" height="2" style="stroke: #A80036; stroke-width: 1.5;" width="4" x="840" y="364.9531"/><text fill="#000000" font-family="sans-serif" font-size="14" lengthAdjust="spacingAndGlyphs" textLength="24" x="813" y="386.9482">ufw</text><!--MD5=[6432b1b885c9701308116bea2c7a966e]
entity BLOG--><rect fill="#FEFECE" filter="url(#fmsi7lkkgqq3h)" height="46.2969" style="stroke: #A80036; stroke-width: 1.5;" width="71" x="691.5" y="353.9531"/><rect fill="#FEFECE" height="10" style="stroke: #A80036; stroke-width: 1.5;" width="15" x="742.5" y="358.9531"/><rect fill="#FEFECE" height="2" style="stroke: #A80036; stroke-width: 1.5;" width="4" x="740.5" y="360.9531"/><rect fill="#FEFECE" height="2" style="stroke: #A80036; stroke-width: 1.5;" width="4" x="740.5" y="364.9531"/><text fill="#000000" font-family="sans-serif" font-size="14" lengthAdjust="spacingAndGlyphs" textLength="31" x="706.5" y="386.9482">Blog</text><!--MD5=[52bb74e2ef528211db78d89d6acc3642]
entity NGINX--><rect fill="#FEFECE" filter="url(#fmsi7lkkgqq3h)" height="46.2969" style="stroke: #A80036; stroke-width: 1.5;" width="155" x="897.5" y="353.9531"/><rect fill="#FEFECE" height="10" style="stroke: #A80036; stroke-width: 1.5;" width="15" x="1032.5" y="358.9531"/><rect fill="#FEFECE" height="2" style="stroke: #A80036; stroke-width: 1.5;" width="4" x="1030.5" y="360.9531"/><rect fill="#FEFECE" height="2" style="stroke: #A80036; stroke-width: 1.5;" width="4" x="1030.5" y="364.9531"/><text fill="#000000" font-family="sans-serif" font-size="14" lengthAdjust="spacingAndGlyphs" textLength="115" x="912.5" y="386.9482">linuxserver/swag</text><!--MD5=[c2b50ca93e31f17e17e083a65eb4f729]
entity SCRIPTS--><rect fill="#FEFECE" filter="url(#fmsi7lkkgqq3h)" height="46.2969" style="stroke: #A80036; stroke-width: 1.5;" width="138" x="243" y="161.9531"/><rect fill="#FEFECE" height="10" style="stroke: #A80036; stroke-width: 1.5;" width="15" x="361" y="166.9531"/><rect fill="#FEFECE" height="2" style="stroke: #A80036; stroke-width: 1.5;" width="4" x="359" y="168.9531"/><rect fill="#FEFECE" height="2" style="stroke: #A80036; stroke-width: 1.5;" width="4" x="359" y="172.9531"/><text fill="#000000" font-family="sans-serif" font-size="14" lengthAdjust="spacingAndGlyphs" textLength="98" x="258" y="194.9482">Python scripts</text><!--MD5=[57380b5217ce6b9e7e2819c2c83b85e8]
entity PLANT_UML--><rect fill="#FEFECE" filter="url(#fmsi7lkkgqq3h)" height="46.2969" style="stroke: #A80036; stroke-width: 1.5;" width="99" x="108.5" y="161.9531"/><rect fill="#FEFECE" height="10" style="stroke: #A80036; stroke-width: 1.5;" width="15" x="187.5" y="166.9531"/><rect fill="#FEFECE" height="2" style="stroke: #A80036; stroke-width: 1.5;" width="4" x="185.5" y="168.9531"/><rect fill="#FEFECE" height="2" style="stroke: #A80036; stroke-width: 1.5;" width="4" x="185.5" y="172.9531"/><text fill="#000000" font-family="sans-serif" font-size="14" lengthAdjust="spacingAndGlyphs" textLength="59" x="123.5" y="194.9482">Plantuml</text><!--MD5=[3e144b930311f5b7316864748024f0d7]
entity NODEJS--><rect fill="#FEFECE" filter="url(#fmsi7lkkgqq3h)" height="46.2969" style="stroke: #A80036; stroke-width: 1.5;" width="88" x="416" y="161.9531"/><rect fill="#FEFECE" height="10" style="stroke: #A80036; stroke-width: 1.5;" width="15" x="484" y="166.9531"/><rect fill="#FEFECE" height="2" style="stroke: #A80036; stroke-width: 1.5;" width="4" x="482" y="168.9531"/><rect fill="#FEFECE" height="2" style="stroke: #A80036; stroke-width: 1.5;" width="4" x="482" y="172.9531"/><text fill="#000000" font-family="sans-serif" font-size="14" lengthAdjust="spacingAndGlyphs" textLength="48" x="431" y="194.9482">NodeJs</text><!--MD5=[d60cecd0a73d1669e86f14306a80d1d4]
entity ANSIBLE--><rect fill="#FEFECE" filter="url(#fmsi7lkkgqq3h)" height="46.2969" style="stroke: #A80036; stroke-width: 1.5;" width="90" x="539" y="161.9531"/><rect fill="#FEFECE" height="10" style="stroke: #A80036; stroke-width: 1.5;" width="15" x="609" y="166.9531"/><rect fill="#FEFECE" height="2" style="stroke: #A80036; stroke-width: 1.5;" width="4" x="607" y="168.9531"/><rect fill="#FEFECE" height="2" style="stroke: #A80036; stroke-width: 1.5;" width="4" x="607" y="172.9531"/><text fill="#000000" font-family="sans-serif" font-size="14" lengthAdjust="spacingAndGlyphs" textLength="50" x="554" y="194.9482">Ansible</text><path d="M753,462.9531 L753,503.2188 A0,0 0 0 0 753,503.2188 L907,503.2188 A0,0 0 0 0 907,503.2188 L907,472.9531 L897,462.9531 L834,462.9531 L830,399.9535 L826,462.9531 L753,462.9531 A0,0 0 0 0 753,462.9531 " fill="#FBFB77" filter="url(#fmsi7lkkgqq3h)" style="stroke: #A80036; stroke-width: 1.0;"/><path d="M897,462.9531 L897,472.9531 L907,472.9531 L897,462.9531 " fill="#FBFB77" style="stroke: #A80036; stroke-width: 1.0;"/><text fill="#000000" font-family="sans-serif" font-size="13" lengthAdjust="spacingAndGlyphs" textLength="99" x="759" y="480.02">Allow only ports</text><text fill="#000000" font-family="sans-serif" font-size="13" lengthAdjust="spacingAndGlyphs" textLength="133" x="759" y="495.1528">22(ssh), 80 and 443"</text><path d="M6,26.9531 L6,67.2188 A0,0 0 0 0 6,67.2188 L92.4694,67.2188 L145.832,161.6311 L100.4694,67.2188 L166,67.2188 A0,0 0 0 0 166,67.2188 L166,36.9531 L156,26.9531 L6,26.9531 A0,0 0 0 0 6,26.9531 " fill="#FBFB77" filter="url(#fmsi7lkkgqq3h)" style="stroke: #A80036; stroke-width: 1.0;"/><path d="M156,26.9531 L156,36.9531 L166,36.9531 L156,26.9531 " fill="#FBFB77" style="stroke: #A80036; stroke-width: 1.0;"/><text fill="#000000" font-family="sans-serif" font-size="13" lengthAdjust="spacingAndGlyphs" textLength="139" x="12" y="44.02">Create UML diagrams</text><text fill="#000000" font-family="sans-serif" font-size="13" lengthAdjust="spacingAndGlyphs" textLength="48" x="12" y="59.1528">like this</text><path d="M201,26.9531 L201,67.2188 A0,0 0 0 0 201,67.2188 L284.926,67.2188 L307.437,161.6311 L292.926,67.2188 L369,67.2188 A0,0 0 0 0 369,67.2188 L369,36.9531 L359,26.9531 L201,26.9531 A0,0 0 0 0 201,26.9531 " fill="#FBFB77" filter="url(#fmsi7lkkgqq3h)" style="stroke: #A80036; stroke-width: 1.0;"/><path d="M359,26.9531 L359,36.9531 L369,36.9531 L359,26.9531 " fill="#FBFB77" style="stroke: #A80036; stroke-width: 1.0;"/><text fill="#000000" font-family="sans-serif" font-size="13" lengthAdjust="spacingAndGlyphs" textLength="147" x="207" y="44.02">Create blog templates,</text><text fill="#000000" font-family="sans-serif" font-size="13" lengthAdjust="spacingAndGlyphs" textLength="146" x="207" y="59.1528">meta data and images</text><path d="M404,26.9531 L404,67.2188 A0,0 0 0 0 404,67.2188 L478.2194,67.2188 L464.394,161.6311 L486.2194,67.2188 L568,67.2188 A0,0 0 0 0 568,67.2188 L568,36.9531 L558,26.9531 L404,26.9531 A0,0 0 0 0 404,26.9531 " fill="#FBFB77" filter="url(#fmsi7lkkgqq3h)" style="stroke: #A80036; stroke-width: 1.0;"/><path d="M558,26.9531 L558,36.9531 L568,36.9531 L558,26.9531 " fill="#FBFB77" style="stroke: #A80036; stroke-width: 1.0;"/><text fill="#000000" font-family="sans-serif" font-size="13" lengthAdjust="spacingAndGlyphs" textLength="143" x="410" y="44.02">Create blog templates</text><text fill="#000000" font-family="sans-serif" font-size="13" lengthAdjust="spacingAndGlyphs" textLength="95" x="410" y="59.1528">and meta data</text><path d="M603.5,34.4531 L603.5,59.5859 L870.5,59.5859 L870.5,44.4531 L860.5,34.4531 L603.5,34.4531 " fill="#FBFB77" filter="url(#fmsi7lkkgqq3h)" style="stroke: #A80036; stroke-width: 1.0;"/><path d="M860.5,34.4531 L860.5,44.4531 L870.5,44.4531 L860.5,34.4531 " fill="#FBFB77" style="stroke: #A80036; stroke-width: 1.0;"/><text fill="#000000" font-family="sans-serif" font-size="13" lengthAdjust="spacingAndGlyphs" textLength="246" x="609.5" y="51.52">Provisioning, bootstraping and delivery</text><path d="M1088,356.9531 L1088,372.9531 L1052.7305,376.9531 L1088,380.9531 L1088,397.2188 A0,0 0 0 0 1088,397.2188 L1258,397.2188 A0,0 0 0 0 1258,397.2188 L1258,366.9531 L1248,356.9531 L1088,356.9531 A0,0 0 0 0 1088,356.9531 " fill="#FBFB77" filter="url(#fmsi7lkkgqq3h)" style="stroke: #A80036; stroke-width: 1.0;"/><path d="M1248,356.9531 L1248,366.9531 L1258,366.9531 L1248,356.9531 " fill="#FBFB77" style="stroke: #A80036; stroke-width: 1.0;"/><text fill="#000000" font-family="sans-serif" font-size="13" lengthAdjust="spacingAndGlyphs" textLength="126" x="1094" y="374.02">Static webcontainer</text><text fill="#000000" font-family="sans-serif" font-size="13" lengthAdjust="spacingAndGlyphs" textLength="149" x="1094" y="389.1528">and certificate handling</text><path d="M664,164.9531 L664,205.2188 A0,0 0 0 0 664,205.2188 L729.2641,205.2188 L727.8449,353.7792 L737.2641,205.2188 L804,205.2188 A0,0 0 0 0 804,205.2188 L804,174.9531 L794,164.9531 L664,164.9531 A0,0 0 0 0 664,164.9531 " fill="#FBFB77" filter="url(#fmsi7lkkgqq3h)" style="stroke: #A80036; stroke-width: 1.0;"/><path d="M794,164.9531 L794,174.9531 L804,174.9531 L794,164.9531 " fill="#FBFB77" style="stroke: #A80036; stroke-width: 1.0;"/><text fill="#000000" font-family="sans-serif" font-size="13" lengthAdjust="spacingAndGlyphs" textLength="119" x="670" y="182.02">This react web app</text><text fill="#000000" font-family="sans-serif" font-size="13" lengthAdjust="spacingAndGlyphs" textLength="94" x="670" y="197.1528">you are seeing</text><!--MD5=[0a111615b0aa83bff4c79751f11a407f]
link UFW to NGINX--><path d="M862.002,376.9531 C873.7726,376.9531 885.5432,376.9531 897.3138,376.9531 " fill="none" id="UFW-NGINX" style="stroke: #A80036; stroke-width: 1.0;"/><!--MD5=[a72ae632cd05e2e7bead60963faa6934]
link NGINX to BLOG--><path d="M965.2909,353.8925 C952.9798,328.0149 929.0488,287.3797 894,269.9531 C849.0298,247.5935 823.7708,243.6295 781,269.9531 C751.4064,288.1667 737.4434,328.1514 731.3115,353.7518 " fill="none" id="NGINX-BLOG" style="stroke: #A80036; stroke-width: 1.0;"/><text fill="#000000" font-family="sans-serif" font-size="13" lengthAdjust="spacingAndGlyphs" textLength="109" x="765.5" y="251.02">«volume mount»</text><!--MD5=[c79a6e3d30043600bb9e5bfadc6d615c]
link NODEJS to ANSIBLE--><!--MD5=[583868764f1f1722b586351f796fdbb5]
link ANSIBLE to VMS--><path d="M592.6849,208.1128 C601.9606,232.848 617.1054,273.2341 630.2574,308.306 C636.8333,325.842 642.9111,342.0494 647.5079,354.3075 C647.6515,354.6906 647.7937,355.0698 647.9345,355.4451 " fill="none" id="ANSIBLE-to-VMS" style="stroke: #A80036; stroke-width: 1.0; stroke-dasharray: 7.0,7.0;"/><polygon fill="#A80036" points="647.9345,355.4451,648.5197,345.6136,646.1789,350.7634,641.0291,348.4226,647.9345,355.4451" style="stroke: #A80036; stroke-width: 1.0;"/><text fill="#000000" font-family="sans-serif" font-size="13" lengthAdjust="spacingAndGlyphs" textLength="63" x="611" y="251.02">Bootstrap</text><!--MD5=[99e61d06494ec967e2691bba2faf04f5]
link GMN153 to ANSIBLE--><path d="M713.3743,59.6518 C694.3262,70.5204 667.4393,87.33 647,105.9531 C628.5867,122.7302 611.2169,145.2018 599.3984,161.8886 " fill="none" id="GMN153-ANSIBLE" style="stroke: #A80036; stroke-width: 1.0; stroke-dasharray: 7.0,7.0;"/><!--MD5=[fc8c3f996be09618ff949648d4f71b85]
@startuml
title Overview components dev and backend

cloud {
    node VMS as "VMS - Ubuntu 20.04" {
        component UFW as "ufw"
        component DOCKER as "Docker host" {
            component NGINX as "linuxserver/swag"
        }
        component BLOG as "Blog"

        UFW - NGINX
        NGINX - BLOG: <<volume mount>>
    }
}
note bottom of UFW: Allow only ports\n22(ssh), 80 and 443" 

node DEVELOPER_MACHINE as "Developer machine" {
    component SCRIPTS as "Python scripts"
    component PLANT_UML as "Plantuml"
    component NODEJS as "NodeJs"
    component ANSIBLE as "Ansible"
    NODEJS -[hidden] ANSIBLE
}

ANSIBLE ..> VMS: Bootstrap
note top of PLANT_UML: Create UML diagrams\nlike this
note top of SCRIPTS: Create blog templates,\nmeta data and images
note top of NODEJS: Create blog templates\nand meta data
note top of ANSIBLE: Provisioning, bootstraping and delivery
note left of NGINX: Static webcontainer\nand certificate handling

note top of BLOG: This react web app\nyou are seeing
@enduml

PlantUML version 1.2020.16(Sun Aug 23 20:20:43 UTC 2020)
(GPL source distribution)
Java Runtime: OpenJDK Runtime Environment
JVM: OpenJDK 64-Bit Server VM
Default Encoding: UTF-8
Language: en
Country: null
--></g></svg>